<svg width="20" height="20" viewBox="0 0 20 20" fill="none" xmlns="http://www.w3.org/2000/svg">
<rect x="1" y="6" width="18" height="10" rx="2" fill="#FFEECC"/>
<path d="M12.5 0C14.3408 9.98532e-06 15.8328 1.49221 15.833 3.33301V5C18.1342 5 20 6.86581 20 9.16699V13.333C20 15.5622 18.2493 17.3825 16.0479 17.4941L15.833 17.5L15.8301 17.6289C15.7651 18.9071 14.7402 19.9323 13.4619 19.9971L13.333 20H6.66699C5.32954 20 4.23705 18.9497 4.16992 17.6289L4.16699 17.5L3.95215 17.4941C1.75067 17.3825 0 15.5622 0 13.333V9.16699C0 6.93776 1.75067 5.11752 3.95215 5.00586L4.16699 5V3.33301C4.16717 1.49221 5.65916 0 7.5 0H12.5ZM6.66699 13.333C6.20676 13.333 5.83301 13.7068 5.83301 14.167V17.5C5.83305 17.9602 6.20678 18.333 6.66699 18.333H13.333C13.7932 18.333 14.167 17.9602 14.167 17.5V14.167C14.167 13.7068 13.7932 13.333 13.333 13.333H6.66699ZM4.16699 6.66699C2.78628 6.66699 1.66699 7.78628 1.66699 9.16699V13.333C1.66699 14.6274 2.65046 15.6923 3.91113 15.8203L4.16699 15.833V14.167C4.16699 12.7863 5.28628 11.667 6.66699 11.667H13.333L13.4619 11.6699C14.7829 11.7369 15.833 12.8294 15.833 14.167V15.833C17.2137 15.833 18.333 14.7137 18.333 13.333V9.16699C18.333 7.78628 17.2137 6.66699 15.833 6.66699H4.16699ZM15 8.33301C15.4602 8.33301 15.833 8.70675 15.833 9.16699C15.8329 9.62711 15.4602 10 15 10H13.333C12.873 9.99982 12.5001 9.62701 12.5 9.16699C12.5 8.70686 12.8729 8.33318 13.333 8.33301H15ZM7.5 1.66699C6.57963 1.66699 5.83318 2.41268 5.83301 3.33301V5H14.167V3.33301C14.1668 2.41269 13.4204 1.667 12.5 1.66699H7.5Z" fill="#FFAB00"/>
</svg>
