<svg width="17" height="20" viewBox="0 0 17 20" fill="none" xmlns="http://www.w3.org/2000/svg">
<rect x="3" y="19" width="15" height="11" rx="2" transform="rotate(-90 3 19)" fill="#FFDDD6"/>
<path d="M9 0C9.94271 0.00121226 10.8566 0.33324 11.5869 0.94043C12.317 1.54753 12.8188 2.39274 13.0088 3.33301H15.5459C15.7627 3.33313 15.9707 3.42105 16.124 3.57715C16.2775 3.73343 16.3633 3.94598 16.3633 4.16699C16.3632 4.38787 16.2774 4.59966 16.124 4.75586C15.9707 4.91203 15.7627 4.99988 15.5459 5H14.7275V15.833C14.7262 16.9377 14.2943 17.9972 13.5273 18.7783C12.7605 19.5592 11.7211 19.9986 10.6367 20H5.72754C4.64299 19.9987 3.60284 19.5594 2.83594 18.7783C2.06902 17.9972 1.63802 16.9377 1.63672 15.833V5H0.818359C0.601364 5 0.392697 4.91214 0.239258 4.75586C0.0860311 4.59968 8.44865e-05 4.38778 0 4.16699C0 3.94601 0.0858541 3.73342 0.239258 3.57715C0.392697 3.42087 0.601364 3.33301 0.818359 3.33301H3.35449C3.54444 2.39264 4.04714 1.54755 4.77734 0.94043C5.5075 0.333418 6.42078 0.00129476 7.36328 0H9ZM3.27246 15.833C3.27246 16.496 3.53089 17.1327 3.99121 17.6016C4.45153 18.0704 5.07656 18.333 5.72754 18.333H10.6367C11.2875 18.3329 11.9119 18.0702 12.3721 17.6016C12.8324 17.1327 13.0908 16.496 13.0908 15.833V5H3.27246V15.833ZM6.36328 8.18164C6.60439 8.18164 6.83635 8.26586 7.00684 8.41504C7.17714 8.56419 7.27246 8.7667 7.27246 8.97754V13.75C7.27246 13.9609 7.17722 14.1633 7.00684 14.3125C6.83635 14.4617 6.60439 14.5459 6.36328 14.5459C6.12232 14.5458 5.89109 14.4616 5.7207 14.3125C5.55026 14.1633 5.45508 13.9609 5.45508 13.75V8.97754C5.45508 8.76666 5.55035 8.5642 5.7207 8.41504C5.89109 8.26595 6.12232 8.18174 6.36328 8.18164ZM10 8.18164C10.2411 8.18164 10.4721 8.26589 10.6426 8.41504C10.8131 8.56422 10.9092 8.76657 10.9092 8.97754V13.75C10.9092 13.961 10.8131 14.1633 10.6426 14.3125C10.4721 14.4616 10.241 14.5459 10 14.5459C9.75897 14.5459 9.52788 14.4616 9.35742 14.3125C9.18693 14.1633 9.09082 13.961 9.09082 13.75V8.97754C9.09082 8.76658 9.18694 8.56421 9.35742 8.41504C9.5279 8.26587 9.75891 8.18165 10 8.18164ZM7.36328 1.66699C6.85606 1.6677 6.36149 1.82783 5.94727 2.12598C5.53294 2.42432 5.21869 2.84602 5.04883 3.33301H11.3145C11.1446 2.84608 10.8313 2.42429 10.417 2.12598C10.0026 1.82759 9.5075 1.66762 9 1.66699H7.36328Z" fill="#FF5630"/>
</svg>
