<svg width="20" height="20" viewBox="0 0 20 20" fill="none" xmlns="http://www.w3.org/2000/svg">
<rect x="1" y="6" width="18" height="10" rx="2" fill="#D3F3DF"/>
<path d="M12.5 0C14.3408 0 15.8328 1.49221 15.833 3.33301V5C18.1342 5 20 6.86581 20 9.16699V12.5C20 12.9601 19.6271 13.3328 19.167 13.333C18.7068 13.333 18.333 12.9602 18.333 12.5V9.16699C18.333 7.78628 17.2137 6.66699 15.833 6.66699H4.16699C2.78628 6.66699 1.66699 7.78628 1.66699 9.16699V13.333C1.66699 14.6274 2.65046 15.6923 3.91113 15.8203L4.16699 15.833V15C4.16699 13.1591 5.65905 11.667 7.5 11.667H13.333C14.7137 11.667 15.833 12.7863 15.833 14.167C15.8328 14.627 15.4601 15 15 15C14.5686 15 14.2137 14.6721 14.1709 14.252L14.1631 14.0811C14.1203 13.661 13.7644 13.333 13.333 13.333H7.5C6.57952 13.333 5.83301 14.0795 5.83301 15V16.667C5.83322 17.5873 6.57966 18.333 7.5 18.333H12.1426C12.6028 18.333 12.9766 18.7068 12.9766 19.167C12.9763 19.627 12.6027 20 12.1426 20H7.5C5.94681 20 4.64153 18.9377 4.27148 17.5H4.16699C1.8658 17.5 0 15.6342 0 13.333V9.16699C0 6.93776 1.75067 5.11752 3.95215 5.00586L4.16699 5V3.33301C4.16717 1.49221 5.65916 0 7.5 0H12.5ZM18.5625 14.4258C18.8798 14.0925 19.4079 14.0793 19.7412 14.3965C20.0743 14.7137 20.0875 15.2409 19.7705 15.5742L16.5977 18.9082C16.2851 19.2365 15.7665 19.2538 15.4316 18.9482L13.6055 17.2822C13.2656 16.972 13.2416 16.4454 13.5518 16.1055C13.862 15.7656 14.3886 15.7416 14.7285 16.0518L15.9521 17.168L18.5625 14.4258ZM15 8.33301C15.4602 8.33301 15.833 8.70675 15.833 9.16699C15.8329 9.62711 15.4602 10 15 10H13.333C12.873 9.99981 12.5001 9.627 12.5 9.16699C12.5 8.70687 12.8729 8.3332 13.333 8.33301H15ZM7.5 1.66699C6.57963 1.66699 5.83318 2.41268 5.83301 3.33301V5H14.167V3.33301C14.1668 2.41268 13.4204 1.66699 12.5 1.66699H7.5Z" fill="#22C55E"/>
</svg>
