<svg width="20" height="20" viewBox="0 0 20 20" fill="none" xmlns="http://www.w3.org/2000/svg">
<path d="M0.5 6.5L19 1L8.5 11.5L0.5 6.5Z" fill="#CCDAEA"/>
<path d="M17.6938 0.0657492C18.0134 -0.00137377 18.4089 -0.0508141 18.7998 0.092605C19.3132 0.281096 19.7186 0.685437 19.9074 1.19939C20.0509 1.59028 20.0013 1.98605 19.9342 2.30536C19.8652 2.63366 19.74 3.03921 19.5965 3.50574C19.5956 3.50852 19.5941 3.5111 19.5932 3.51387L15.3793 17.2087C15.1953 17.8069 15.0418 18.3103 14.8894 18.685C14.7486 19.0312 14.5379 19.4631 14.1318 19.7169C13.6215 20.0356 12.9878 20.0891 12.4301 19.8577C11.9881 19.6741 11.7097 19.2834 11.5137 18.9649C11.3016 18.6202 11.0671 18.149 10.787 17.5888L8.11607 12.2485C8.06807 12.1525 8.0418 12.1003 8.02085 12.0622C8.01149 12.0451 8.00621 12.0359 8.00376 12.0321C7.9912 12.0158 7.9794 12.0036 7.96877 11.9954C7.96482 11.993 7.95693 11.9886 7.94273 11.9808C7.90606 11.9607 7.85612 11.9358 7.76369 11.8896L2.41044 9.21301C1.85051 8.93304 1.37962 8.69822 1.0351 8.48627C0.716642 8.29033 0.325813 8.01207 0.14235 7.56992C-0.0887571 7.01292 -0.036106 6.3792 0.28314 5.86824L0.386494 5.725C0.643747 5.41085 1.01197 5.23391 1.31505 5.11058C1.6898 4.95812 2.19295 4.80396 2.7913 4.61985L16.4926 0.404295C16.9596 0.260604 17.3653 0.134768 17.6938 0.0657492ZM18.2448 1.66652C18.2183 1.66729 18.1549 1.67175 18.0364 1.69663C17.8005 1.74619 17.4817 1.84358 16.9833 1.99693L3.28122 6.21329C2.65149 6.40706 2.23281 6.53625 1.9425 6.65438C1.78677 6.71776 1.71222 6.76099 1.68289 6.77971C1.66682 6.81779 1.66319 6.85928 1.67231 6.89934C1.69742 6.92205 1.7632 6.97769 1.90832 7.06698C2.17528 7.23122 2.56659 7.42826 3.15589 7.72292L8.45054 10.3702L13.1007 5.72093C13.4261 5.39552 13.9536 5.3955 14.2791 5.72093C14.6044 6.04638 14.6044 6.57393 14.2791 6.89934L9.62976 11.5486L12.2771 16.8433C12.5717 17.4326 12.7687 17.8246 12.933 18.0917C13.0211 18.2349 13.0765 18.301 13.0998 18.3269C13.1392 18.3361 13.1797 18.3328 13.2178 18.3171C13.2361 18.2886 13.2806 18.2147 13.3448 18.0567C13.4629 17.7664 13.593 17.3483 13.7867 16.7188L18.0022 3.01663C18.0027 3.015 18.0034 3.01339 18.0039 3.01175C18.1565 2.51557 18.2539 2.19798 18.3034 1.96275C18.3283 1.84381 18.3319 1.78052 18.3326 1.75441C18.3135 1.71627 18.2833 1.68559 18.2448 1.66652Z" fill="#014598"/>
</svg>
